<?xml version="1.0" encoding="utf-8"?>
<!DOCTYPE svg PUBLIC "-//W3C//DTD SVG 1.1//EN" "http://www.w3.org/Graphics/SVG/1.1/DTD/svg11.dtd">
<svg version="1.1" xmlns="http://www.w3.org/2000/svg">

  <symbol id="cl_logo" viewBox="0 0 500 78">
    <path d="M67.71,48.26V14.07H83.54a11.5,11.5,0,0,1,8.09,2.85,9.62,9.62,0,0,1,3.1,7.41,9.4,9.4,0,0,1-3.13,7.32,11.53,11.53,0,0,1-8.06,2.84H72.84V48.26ZM83,18.56H72.84V30.14H83a6.91,6.91,0,0,0,4.77-1.59,5.38,5.38,0,0,0,1.78-4.22,5.33,5.33,0,0,0-1.78-4.21A7,7,0,0,0,83,18.56Z" transform="translate(-14.21 -8.97)"/><path d="M105.87,48.26V14.07h25.21v4.49H111V28.82h13.19v4.4H111V43.77h20.27v4.49Z" transform="translate(-14.21 -8.97)"/><path d="M142.41,48.26V14.07H158a11.88,11.88,0,0,1,8.23,2.81,9.31,9.31,0,0,1,3.15,7.3,9.28,9.28,0,0,1-1.9,5.84,10.53,10.53,0,0,1-5.13,3.54l7.62,14.7h-5.67l-7.08-14h-9.63v14Zm15.1-29.7h-10V30h10a7.13,7.13,0,0,0,4.81-1.58,5.22,5.22,0,0,0,1.83-4.13,5.21,5.21,0,0,0-1.83-4.16A7.17,7.17,0,0,0,157.51,18.56Z" transform="translate(-14.21 -8.97)"/><path d="M177.54,48.26l14.17-34.19h6l14,34.19h-5.57l-4-10H186.87l-4,10Zm11-14.26H200.5l-6-15Z" transform="translate(-14.21 -8.97)"/><path d="M212,18.61V14.07h29.17v4.54h-12V48.26H224V18.61Z" transform="translate(-14.21 -8.97)"/><path d="M283.12,31.17a17.35,17.35,0,0,1-1.4,6.91,18.08,18.08,0,0,1-23.42,9.35,17.23,17.23,0,0,1-5.65-3.73,17.82,17.82,0,0,1-3.76-5.62,17.9,17.9,0,0,1,0-13.83,17.82,17.82,0,0,1,3.76-5.62,17.23,17.23,0,0,1,5.65-3.73,18.49,18.49,0,0,1,14,0,17.2,17.2,0,0,1,9.45,9.35A17.36,17.36,0,0,1,283.12,31.17Zm-5.23,0a13.29,13.29,0,0,0-1-5.11,12.79,12.79,0,0,0-2.66-4.1,12.17,12.17,0,0,0-4-2.72,12.68,12.68,0,0,0-5-1,12.46,12.46,0,0,0-4.93,1,12.15,12.15,0,0,0-4,2.72,12.81,12.81,0,0,0-2.67,4.1,13.92,13.92,0,0,0,0,10.21,12.39,12.39,0,0,0,6.65,6.79,12.14,12.14,0,0,0,4.93,1,12.35,12.35,0,0,0,5-1,12.26,12.26,0,0,0,6.67-6.79A13.28,13.28,0,0,0,277.89,31.17Z" transform="translate(-14.21 -8.97)"/><path d="M98,60V56.39h15.11V60h-5.49V73.18H103.5V60Z" transform="translate(-14.21 -8.97)"/><path d="M137.32,64.79a8.3,8.3,0,0,1-.7,3.39,8.58,8.58,0,0,1-1.89,2.76,8.88,8.88,0,0,1-2.86,1.83,9.61,9.61,0,0,1-7.05,0A8.94,8.94,0,0,1,122,70.94a8.77,8.77,0,0,1-1.9-2.76,8.7,8.7,0,0,1,0-6.79,8.77,8.77,0,0,1,1.9-2.76,8.94,8.94,0,0,1,2.85-1.83,9.61,9.61,0,0,1,7.05,0,8.88,8.88,0,0,1,2.86,1.83,8.58,8.58,0,0,1,1.89,2.76A8.35,8.35,0,0,1,137.32,64.79Zm-4.25,0a5.1,5.1,0,0,0-.36-1.93,4.62,4.62,0,0,0-4.36-2.94A4.66,4.66,0,0,0,125,61.31a4.7,4.7,0,0,0-1,1.55,5.1,5.1,0,0,0-.36,1.93,5.17,5.17,0,0,0,.36,1.93,4.66,4.66,0,0,0,1,1.54,4.34,4.34,0,0,0,1.5,1,4.91,4.91,0,0,0,3.74,0,4.34,4.34,0,0,0,1.5-1,4.64,4.64,0,0,0,1-1.54A5.17,5.17,0,0,0,133.07,64.79Z" transform="translate(-14.21 -8.97)"/><path d="M162.84,64.79a8.47,8.47,0,0,1-.7,3.39,8.58,8.58,0,0,1-1.89,2.76,8.88,8.88,0,0,1-2.86,1.83,9.61,9.61,0,0,1-7,0,8.94,8.94,0,0,1-2.85-1.83,8.77,8.77,0,0,1-1.9-2.76,8.7,8.7,0,0,1,0-6.79,8.77,8.77,0,0,1,1.9-2.76,8.94,8.94,0,0,1,2.85-1.83,9.61,9.61,0,0,1,7,0,8.88,8.88,0,0,1,2.86,1.83,8.63,8.63,0,0,1,2.59,6.16Zm-4.25,0a5.1,5.1,0,0,0-.36-1.93,4.68,4.68,0,0,0-1-1.55,4.86,4.86,0,0,0-1.5-1,4.75,4.75,0,0,0-5.24,1,4.55,4.55,0,0,0-1,1.55,5.1,5.1,0,0,0-.36,1.93,5.17,5.17,0,0,0,.36,1.93,4.51,4.51,0,0,0,1,1.54,4.34,4.34,0,0,0,1.5,1,4.91,4.91,0,0,0,3.74,0,4.54,4.54,0,0,0,1.5-1,4.64,4.64,0,0,0,1-1.54A5.17,5.17,0,0,0,158.59,64.79Z" transform="translate(-14.21 -8.97)"/><path d="M171,73.18V56.39h4.13V69.53H184v3.65Z" transform="translate(-14.21 -8.97)"/><path d="M211.52,69.61a5,5,0,0,0,2.27-.53,5.83,5.83,0,0,0,1.88-1.56l2.71,2.66a8.35,8.35,0,0,1-3.08,2.35,9.23,9.23,0,0,1-3.92.89,9.36,9.36,0,0,1-3.56-.67A9,9,0,0,1,205,70.93a8.39,8.39,0,0,1-1.89-2.74,8.24,8.24,0,0,1-.7-3.4,8.34,8.34,0,0,1,.7-3.42,8.21,8.21,0,0,1,1.9-2.75,9,9,0,0,1,2.87-1.82,9.27,9.27,0,0,1,3.55-.67,9.12,9.12,0,0,1,2.06.24,10.86,10.86,0,0,1,2,.66,8.25,8.25,0,0,1,1.72,1,7.63,7.63,0,0,1,1.37,1.35l-2.78,2.74a6.18,6.18,0,0,0-2-1.67,5.16,5.16,0,0,0-2.36-.56,4.62,4.62,0,0,0-4.4,2.94,4.92,4.92,0,0,0-.37,1.93,4.77,4.77,0,0,0,.37,1.9,4.59,4.59,0,0,0,1,1.53,4.72,4.72,0,0,0,1.56,1A5,5,0,0,0,211.52,69.61Z" transform="translate(-14.21 -8.97)"/><path d="M243,64.79a8.3,8.3,0,0,1-.7,3.39,8.58,8.58,0,0,1-1.89,2.76,8.88,8.88,0,0,1-2.86,1.83,9.61,9.61,0,0,1-7,0,8.94,8.94,0,0,1-2.85-1.83,8.77,8.77,0,0,1-1.9-2.76,8.7,8.7,0,0,1,0-6.79,8.77,8.77,0,0,1,1.9-2.76,8.94,8.94,0,0,1,2.85-1.83,9.61,9.61,0,0,1,7,0,8.88,8.88,0,0,1,2.86,1.83,8.58,8.58,0,0,1,1.89,2.76A8.35,8.35,0,0,1,243,64.79Zm-4.25,0a5.1,5.1,0,0,0-.36-1.93,4.68,4.68,0,0,0-1-1.55,4.86,4.86,0,0,0-1.5-1,4.75,4.75,0,0,0-5.24,1,4.55,4.55,0,0,0-1,1.55,5.1,5.1,0,0,0-.36,1.93,5.17,5.17,0,0,0,.36,1.93,4.51,4.51,0,0,0,1,1.54,4.34,4.34,0,0,0,1.5,1,4.91,4.91,0,0,0,3.74,0,4.54,4.54,0,0,0,1.5-1,4.64,4.64,0,0,0,1-1.54A5.17,5.17,0,0,0,238.74,64.79Z" transform="translate(-14.21 -8.97)"/><path d="M251.91,69a2.25,2.25,0,1,1-1.57.66A2.14,2.14,0,0,1,251.91,69Z" transform="translate(-14.21 -8.97)"/><path d="M56.5,22.29A21.4,21.4,0,0,0,44.82,10.73a22.91,22.91,0,0,0-17.27,0,21.43,21.43,0,0,0-7,4.62,22,22,0,0,0-4.65,6.94,22.09,22.09,0,0,0,0,17.09,22,22,0,0,0,4.65,6.94,21.43,21.43,0,0,0,7,4.62,22.91,22.91,0,0,0,17.27,0A21.4,21.4,0,0,0,56.5,39.38a22.09,22.09,0,0,0,0-17.09ZM51.74,37.65a16.68,16.68,0,0,1-15.52,10.4,16.3,16.3,0,0,1-6.58-1.34,16.47,16.47,0,0,1-8.87-9.06,18.38,18.38,0,0,1,0-13.63,17.21,17.21,0,0,1,3.55-5.48,16.15,16.15,0,0,1,5.32-3.62,16.79,16.79,0,0,1,6.58-1.3,17.06,17.06,0,0,1,6.62,1.3,16.17,16.17,0,0,1,5.35,3.62A17.21,17.21,0,0,1,51.74,24,17.69,17.69,0,0,1,53,30.83,17.7,17.7,0,0,1,51.74,37.65Z" transform="translate(-14.21 -8.97)"/><path d="M317.7,33.36a13.15,13.15,0,0,0,6.42-4.44,11.57,11.57,0,0,0,2.38-7.3,11.67,11.67,0,0,0-3.94-9.14A14.91,14.91,0,0,0,312.26,9H292.82V51.75H298l-.07-17.54h14.64l8.88,17.54h5.81Zm-6-4.47H298V13.51h13.69c4.54.12,6.09,1.13,7.54,2.48a6.77,6.77,0,0,1,2.35,5.19,7,7,0,0,1-2.1,5.44C317.93,27.94,316.66,28.89,311.71,28.89Z" transform="translate(-14.21 -8.97)"/>
  </symbol>

  <symbol id="mp_logo" viewBox="0 0 313.03 64.48">
    <path fill="currentColor" d="M67.71,48.26V14.07H83.54a11.5,11.5,0,0,1,8.09,2.85,9.62,9.62,0,0,1,3.1,7.41,9.4,9.4,0,0,1-3.13,7.32,11.53,11.53,0,0,1-8.06,2.84H72.84V48.26ZM83,18.56H72.84V30.14H83a6.91,6.91,0,0,0,4.77-1.59,5.38,5.38,0,0,0,1.78-4.22,5.33,5.33,0,0,0-1.78-4.21A7,7,0,0,0,83,18.56Z" transform="translate(-14.21 -8.97)"/><path d="M105.87,48.26V14.07h25.21v4.49H111V28.82h13.19v4.4H111V43.77h20.27v4.49Z" transform="translate(-14.21 -8.97)"/><path d="M142.41,48.26V14.07H158a11.88,11.88,0,0,1,8.23,2.81,9.31,9.31,0,0,1,3.15,7.3,9.28,9.28,0,0,1-1.9,5.84,10.53,10.53,0,0,1-5.13,3.54l7.62,14.7h-5.67l-7.08-14h-9.63v14Zm15.1-29.7h-10V30h10a7.13,7.13,0,0,0,4.81-1.58,5.22,5.22,0,0,0,1.83-4.13,5.21,5.21,0,0,0-1.83-4.16A7.17,7.17,0,0,0,157.51,18.56Z" transform="translate(-14.21 -8.97)"/><path d="M177.54,48.26l14.17-34.19h6l14,34.19h-5.57l-4-10H186.87l-4,10Zm11-14.26H200.5l-6-15Z" transform="translate(-14.21 -8.97)"/><path d="M212,18.61V14.07h29.17v4.54h-12V48.26H224V18.61Z" transform="translate(-14.21 -8.97)"/><path d="M283.12,31.17a17.35,17.35,0,0,1-1.4,6.91,18.08,18.08,0,0,1-23.42,9.35,17.23,17.23,0,0,1-5.65-3.73,17.82,17.82,0,0,1-3.76-5.62,17.9,17.9,0,0,1,0-13.83,17.82,17.82,0,0,1,3.76-5.62,17.23,17.23,0,0,1,5.65-3.73,18.49,18.49,0,0,1,14,0,17.2,17.2,0,0,1,9.45,9.35A17.36,17.36,0,0,1,283.12,31.17Zm-5.23,0a13.29,13.29,0,0,0-1-5.11,12.79,12.79,0,0,0-2.66-4.1,12.17,12.17,0,0,0-4-2.72,12.68,12.68,0,0,0-5-1,12.46,12.46,0,0,0-4.93,1,12.15,12.15,0,0,0-4,2.72,12.81,12.81,0,0,0-2.67,4.1,13.92,13.92,0,0,0,0,10.21,12.39,12.39,0,0,0,6.65,6.79,12.14,12.14,0,0,0,4.93,1,12.35,12.35,0,0,0,5-1,12.26,12.26,0,0,0,6.67-6.79A13.28,13.28,0,0,0,277.89,31.17Z" transform="translate(-14.21 -8.97)"/><path d="M98,60V56.39h15.11V60h-5.49V73.18H103.5V60Z" transform="translate(-14.21 -8.97)"/><path d="M137.32,64.79a8.3,8.3,0,0,1-.7,3.39,8.58,8.58,0,0,1-1.89,2.76,8.88,8.88,0,0,1-2.86,1.83,9.61,9.61,0,0,1-7.05,0A8.94,8.94,0,0,1,122,70.94a8.77,8.77,0,0,1-1.9-2.76,8.7,8.7,0,0,1,0-6.79,8.77,8.77,0,0,1,1.9-2.76,8.94,8.94,0,0,1,2.85-1.83,9.61,9.61,0,0,1,7.05,0,8.88,8.88,0,0,1,2.86,1.83,8.58,8.58,0,0,1,1.89,2.76A8.35,8.35,0,0,1,137.32,64.79Zm-4.25,0a5.1,5.1,0,0,0-.36-1.93,4.62,4.62,0,0,0-4.36-2.94A4.66,4.66,0,0,0,125,61.31a4.7,4.7,0,0,0-1,1.55,5.1,5.1,0,0,0-.36,1.93,5.17,5.17,0,0,0,.36,1.93,4.66,4.66,0,0,0,1,1.54,4.34,4.34,0,0,0,1.5,1,4.91,4.91,0,0,0,3.74,0,4.34,4.34,0,0,0,1.5-1,4.64,4.64,0,0,0,1-1.54A5.17,5.17,0,0,0,133.07,64.79Z" transform="translate(-14.21 -8.97)"/><path d="M162.84,64.79a8.47,8.47,0,0,1-.7,3.39,8.58,8.58,0,0,1-1.89,2.76,8.88,8.88,0,0,1-2.86,1.83,9.61,9.61,0,0,1-7,0,8.94,8.94,0,0,1-2.85-1.83,8.77,8.77,0,0,1-1.9-2.76,8.7,8.7,0,0,1,0-6.79,8.77,8.77,0,0,1,1.9-2.76,8.94,8.94,0,0,1,2.85-1.83,9.61,9.61,0,0,1,7,0,8.88,8.88,0,0,1,2.86,1.83,8.63,8.63,0,0,1,2.59,6.16Zm-4.25,0a5.1,5.1,0,0,0-.36-1.93,4.68,4.68,0,0,0-1-1.55,4.86,4.86,0,0,0-1.5-1,4.75,4.75,0,0,0-5.24,1,4.55,4.55,0,0,0-1,1.55,5.1,5.1,0,0,0-.36,1.93,5.17,5.17,0,0,0,.36,1.93,4.51,4.51,0,0,0,1,1.54,4.34,4.34,0,0,0,1.5,1,4.91,4.91,0,0,0,3.74,0,4.54,4.54,0,0,0,1.5-1,4.64,4.64,0,0,0,1-1.54A5.17,5.17,0,0,0,158.59,64.79Z" transform="translate(-14.21 -8.97)"/><path d="M171,73.18V56.39h4.13V69.53H184v3.65Z" transform="translate(-14.21 -8.97)"/><path d="M211.52,69.61a5,5,0,0,0,2.27-.53,5.83,5.83,0,0,0,1.88-1.56l2.71,2.66a8.35,8.35,0,0,1-3.08,2.35,9.23,9.23,0,0,1-3.92.89,9.36,9.36,0,0,1-3.56-.67A9,9,0,0,1,205,70.93a8.39,8.39,0,0,1-1.89-2.74,8.24,8.24,0,0,1-.7-3.4,8.34,8.34,0,0,1,.7-3.42,8.21,8.21,0,0,1,1.9-2.75,9,9,0,0,1,2.87-1.82,9.27,9.27,0,0,1,3.55-.67,9.12,9.12,0,0,1,2.06.24,10.86,10.86,0,0,1,2,.66,8.25,8.25,0,0,1,1.72,1,7.63,7.63,0,0,1,1.37,1.35l-2.78,2.74a6.18,6.18,0,0,0-2-1.67,5.16,5.16,0,0,0-2.36-.56,4.62,4.62,0,0,0-4.4,2.94,4.92,4.92,0,0,0-.37,1.93,4.77,4.77,0,0,0,.37,1.9,4.59,4.59,0,0,0,1,1.53,4.72,4.72,0,0,0,1.56,1A5,5,0,0,0,211.52,69.61Z" transform="translate(-14.21 -8.97)"/><path d="M243,64.79a8.3,8.3,0,0,1-.7,3.39,8.58,8.58,0,0,1-1.89,2.76,8.88,8.88,0,0,1-2.86,1.83,9.61,9.61,0,0,1-7,0,8.94,8.94,0,0,1-2.85-1.83,8.77,8.77,0,0,1-1.9-2.76,8.7,8.7,0,0,1,0-6.79,8.77,8.77,0,0,1,1.9-2.76,8.94,8.94,0,0,1,2.85-1.83,9.61,9.61,0,0,1,7,0,8.88,8.88,0,0,1,2.86,1.83,8.58,8.58,0,0,1,1.89,2.76A8.35,8.35,0,0,1,243,64.79Zm-4.25,0a5.1,5.1,0,0,0-.36-1.93,4.68,4.68,0,0,0-1-1.55,4.86,4.86,0,0,0-1.5-1,4.75,4.75,0,0,0-5.24,1,4.55,4.55,0,0,0-1,1.55,5.1,5.1,0,0,0-.36,1.93,5.17,5.17,0,0,0,.36,1.93,4.51,4.51,0,0,0,1,1.54,4.34,4.34,0,0,0,1.5,1,4.91,4.91,0,0,0,3.74,0,4.54,4.54,0,0,0,1.5-1,4.64,4.64,0,0,0,1-1.54A5.17,5.17,0,0,0,238.74,64.79Z" transform="translate(-14.21 -8.97)"/><path d="M251.91,69a2.25,2.25,0,1,1-1.57.66A2.14,2.14,0,0,1,251.91,69Z" transform="translate(-14.21 -8.97)"/><path d="M56.5,22.29A21.4,21.4,0,0,0,44.82,10.73a22.91,22.91,0,0,0-17.27,0,21.43,21.43,0,0,0-7,4.62,22,22,0,0,0-4.65,6.94,22.09,22.09,0,0,0,0,17.09,22,22,0,0,0,4.65,6.94,21.43,21.43,0,0,0,7,4.62,22.91,22.91,0,0,0,17.27,0A21.4,21.4,0,0,0,56.5,39.38a22.09,22.09,0,0,0,0-17.09ZM51.74,37.65a16.68,16.68,0,0,1-15.52,10.4,16.3,16.3,0,0,1-6.58-1.34,16.47,16.47,0,0,1-8.87-9.06,18.38,18.38,0,0,1,0-13.63,17.21,17.21,0,0,1,3.55-5.48,16.15,16.15,0,0,1,5.32-3.62,16.79,16.79,0,0,1,6.58-1.3,17.06,17.06,0,0,1,6.62,1.3,16.17,16.17,0,0,1,5.35,3.62A17.21,17.21,0,0,1,51.74,24,17.69,17.69,0,0,1,53,30.83,17.7,17.7,0,0,1,51.74,37.65Z" transform="translate(-14.21 -8.97)"/><path d="M317.7,33.36a13.15,13.15,0,0,0,6.42-4.44,11.57,11.57,0,0,0,2.38-7.3,11.67,11.67,0,0,0-3.94-9.14A14.91,14.91,0,0,0,312.26,9H292.82V51.75H298l-.07-17.54h14.64l8.88,17.54h5.81Zm-6-4.47H298V13.51h13.69c4.54.12,6.09,1.13,7.54,2.48a6.77,6.77,0,0,1,2.35,5.19,7,7,0,0,1-2.1,5.44C317.93,27.94,316.66,28.89,311.71,28.89Z" transform="translate(-14.21 -8.97)"/>
  </symbol>

  <symbol id="tonic_logo" viewBox="0 0 198.4 119.8">
    <path fill="currentColor" d="M91.2,16.5c7.4,1.6,15.9,3.3,23.3,3.3c8.7,0,15.5-3.9,15.5-8.8c0-6.6-10.2-7.1-13.4-7.1
      c-9.4,0-17.5,2.8-26.1,9.2c-5.9-1.4-12.2-3-18.2-4.6C56.9,4.2,40.9,0,28.6,0C14.7,0,0,6.5,0,18.5c0,7.7,8.1,16,21.3,16
      c11.3,0,20.6-3.8,27.6-11.4l0.8-0.8l-2.6-1.9l-0.6,0.7c-6.3,6.8-14.8,10.2-25.2,10.2c-8.7,0-18.1-4.9-18.1-12.8
      c0-7.6,8.7-15.3,25.4-15.3c12,0,28,4.3,43.4,8.4c5.1,1.4,10.3,2.7,15.3,4C69.2,30.6,46,63.1,10.2,117.1l-0.5,0.8l2.6,1.9l0.6-0.9
      C49.8,63.3,73.2,30.4,91.2,16.5z M114.5,16.6c-6.3,0-13.6-1.3-19.8-2.6c7.1-4.8,13.9-6.9,21.9-6.9c2.4,0,10.2,0.3,10.2,3.9
      C126.8,13.7,122.1,16.6,114.5,16.6z"/>
    <path fill="currentColor" d="M163.1,64.5c1.5,0,3-1.6,3-3.2c0-1.5-1.5-3-3-3c-1.6,0-3.2,1.5-3.2,3C160,63,161.5,64.5,163.1,64.5z"/>
    <path fill="currentColor" d="M195.8,92.6l-0.6,0.7c-8.5,9.9-23.5,20.5-32.5,20.5c-1.9,0-5.1-0.8-5.1-5.8c0-4.1,1.6-8.5,4.1-12.5l0.1-0.1
      l0.7-0.8l-0.1-0.1c6.8-10.3,19-18.9,25.1-18.9c1.9,0,1.9,0.6,1.9,0.9c0,4.9-7.3,12.7-15.1,16.1l-0.9,0.4l1.2,3.1l1-0.4
      c8.1-3.7,17-12.4,17-19.1c0-2-1.8-4.1-5.1-4.1c-7.6,0-20.5,9.4-27.7,20.5l-0.4,0.5c-12.7,14.9-22.2,20.2-26.4,20.2
      c-0.5,0-1.4,0-1.4-1.9c0-4.5,5.8-13.8,18.9-29.8l4.3-5.2l-2.6-1.9l-4.1,5.1c-7.3,8.5-10.3,12-11.1,13l-0.3,0.4
      c-14.1,16.5-23.7,20.9-26.8,20.9c-1,0-1.3-0.2-1.3-1.5c0-4,5.5-10.7,10.8-17.2c5.7-7,11.1-13.6,11.1-18.2c0-2.2-1.5-4.5-4.2-4.5
      c-5,0-12.8,6.4-19.6,13c4.3-6.8,4.3-8.7,4.3-9.5c0-2.5-1.4-4-3.6-4c-3.9,0-11.1,8-21.5,20.3l0,0l-0.6,0.7
      c-10,11.7-18.4,15.6-23.6,15.6c9.7-8.9,19.5-23.3,19.5-32.1c0-4.1-2.7-5.6-5.2-5.6c-6.7,0-16.8,8.9-21.6,18.5L53,88.5l-0.7,0.7
      c-6.8,6.8-11.6,15.7-11.6,21.6c0,3.9,2.3,6.5,5.8,6.5c3.1,0,7.1-1.9,11.8-5.6c7.3,2.2,18.5-3.8,28.7-15.6l0,0l0.8-0.9l0.5-0.6l0,0
      l0.2-0.3c7.1-8.3,15.9-18.7,18.7-18.7c0.2,0,0.3,0,0.4,0c0,0.1,0.1,0.3,0.1,0.8c0,3.9-12.8,20.8-19.7,29.8
      c-2.4,3.2-4.5,5.9-5.7,7.6l-0.6,0.8l2.5,1.9l0.6-0.8C102.7,92.4,119.7,76,126.3,76c0.7,0,1,0.1,1,1.3c0,3.5-5.2,9.9-10.2,16
      c-5.8,7-11.7,14.3-11.7,19.4c0,2.3,1.4,4.7,4.5,4.7c4,0,11.5-4.1,20.7-12.9c-1.4,2.9-2.1,5.2-2.1,7.1c0,2.5,1.6,5.1,4.6,5.1
      c4.2,0,12-3.9,22.2-14.2c-0.5,1.9-0.8,3.7-0.8,5.5c0,6.2,4.2,9,8.3,9c9,0,24.7-9.7,35-21.7l0.7-0.8L195.8,92.6z M75.9,74.5
      c1.2,0,2,0.4,2,2.4c0,8.2-10.4,22.9-19.9,31.1c-2.2-1.3-3.3-4.1-3.3-7.9C54.7,88.5,68.9,74.5,75.9,74.5z M51.5,100
      c0,5.6,1.9,8.6,3.8,10.1c-3.5,2.6-6.6,4-8.8,4c-1.3,0-2.6-0.4-2.6-3.3c0-4.6,3.5-11.4,8.8-17.2C51.9,95.8,51.5,98,51.5,100z"/>
  </symbol>

  <symbol id="tonic_icon" viewBox="0 0 100 100">
  	<path fill="#EB664E" d="M25.6,65.9c0,0,5.9-3.3,14-2.4s11.8,3.3,21.8,2.4s13-2.5,13-2.5l-0.2,28.1c0,0,0.5,7.1-7.1,7.1
  		c-7.6,0-34.6,0-34.6,0s-7.6-1.4-7.1-7.1C25.8,85.8,25.6,65.9,25.6,65.9z"/>
  	<path fill="currentColor" d="M75.7,40.5C74.8,32,69.5,26.4,60.2,24v-8.8h3.1v-2.8h-3.1h-3L58.5,0H41.5l1.3,12.3h-3h-3.1v2.8h3.1V24
  		c-9.4,2.4-14.6,7.7-15.5,16l-0.1,0.5v50.9c0,4.7,3.8,8.5,8.5,8.5h34.6c4.7,0,8.5-3.8,8.5-8.5V41.1L75.7,40.5z M44.7,2.8h10.6
  		l-1,9.5h-8.6L44.7,2.8z M73,91.5c0,3.1-2.6,5.7-5.7,5.7H32.7c-3.1,0-5.7-2.6-5.7-5.7V40.9l0.1-0.3l0-0.2c0.7-7.4,5.5-12,14.4-13.9
  		l1.1-0.2V15.2h0.5h13.7h0.5v11.1l1.1,0.2c6.1,1.3,13.5,4.9,14.4,14.4l0.1,0.5V91.5z"/>
  	<path fill="currentColor" d="M61.8,51c-2,0-3.7,0.6-5.5,1.8c-1.1-0.3-2.2-0.6-3.4-0.9c-3.2-0.9-6.5-1.8-9.1-1.8c-3.2,0-6.5,1.6-6.5,4.4
  		c0,2.4,2.6,3.9,5,3.9c2.5,0,4.6-0.9,6.1-2.5l0.7-0.7l-1.6-1.2l-0.5,0.6c-1.2,1.2-2.7,1.9-4.7,1.9c-1.5,0-3-0.8-3-2
  		c0-1.2,1.6-2.5,4.5-2.5c2.3,0,5.5,0.8,8.6,1.7l0.1,0c0.6,0.2,1.3,0.3,1.9,0.5c-3.6,3.4-8.2,9.9-15,20.1L39,75.1l1.6,1.2l0.5-0.8
  		c7.4-11.1,12.1-17.7,15.6-20.6c1.5,0.3,3.1,0.6,4.6,0.6c2.2,0,3.8-1.1,3.8-2.5C65.2,51.8,63.9,51,61.8,51z M61.3,53.6
  		c-0.7,0-1.4-0.1-2.1-0.2c0.8-0.3,1.6-0.4,2.5-0.4c0.7,0,1.1,0.1,1.3,0.2C62.9,53.3,62.3,53.6,61.3,53.6z"/>
  	<circle fill="currentColor" cx="58.8" cy="73.2" r="1.2"/>
  </symbol>

</svg>
