<svg id="Layer_1" data-name="Layer 1" xmlns="http://www.w3.org/2000/svg" viewBox="0 0 245.68 87.47"><defs><style>.cls-1{fill:#fff;}</style></defs><title>MindPoint Group Logo White No Tagline</title><path class="cls-1" d="M290.56,307.77h6.93l11.27,17.51L320,307.77H327v28.42a25.53,25.53,0,1,0-36.4.27Z" transform="translate(-273.16 -279.24)"/><path class="cls-1" d="M320.45,318.24,308.76,335.7h-.21L297,318.35v22.78a25.51,25.51,0,0,0,23.49-.07Z" transform="translate(-273.16 -279.24)"/><path class="cls-1" d="M332.32,341.58l-1.08,1-1.3,1.15c-.54.41-1.17.85-1.86,1.35a21.29,21.29,0,0,1-2.4,1.53c-.46.26-.91.56-1.41.81l-1.58.73a33.31,33.31,0,0,1-7.64,2.42,36.5,36.5,0,0,1-4.55.46c-.78,0-1.63.09-2.37,0l-2.55-.18a34.51,34.51,0,0,1-10-2.76,32.37,32.37,0,0,1-15.75-15.61,33,33,0,0,1-3-10.94c0-.94-.07-1.88-.11-2.81v-.26l0-.37,0-.73.09-1.46a8.17,8.17,0,0,1,.16-1.37l.2-1.31a22.21,22.21,0,0,1,.58-2.61,32,32,0,0,1,4.16-9.31,30.59,30.59,0,0,1,6.08-6.8,31.12,31.12,0,0,1,3.26-2.42c.52-.38,1.1-.64,1.62-1a17,17,0,0,1,1.57-.83A34,34,0,0,1,300,288.2l2.13-.55,1-.18,0,3.74,10.33-6-10.4-5.92,0,3.88-1.82.25-2.43.61a35,35,0,0,0-6.27,2.48,19.5,19.5,0,0,0-1.76,1c-.59.36-1.23.68-1.82,1.11a35.87,35.87,0,0,0-3.63,2.81,34.69,34.69,0,0,0-6.69,7.81,35.8,35.8,0,0,0-4.46,10.53,26.9,26.9,0,0,0-.59,3c-.07.51-.13,1-.2,1.54a11.78,11.78,0,0,0-.14,1.51l-.05,1.46,0,.73v.84c.06,1,.12,2.06.19,3.1a35.08,35.08,0,0,0,21.18,28.47A36,36,0,0,0,305.47,353L308,353h.68l.64,0,1.26-.09a37.16,37.16,0,0,0,4.78-.68,35.08,35.08,0,0,0,7.91-2.84l1.61-.83c.52-.28,1-.61,1.43-.89a23.41,23.41,0,0,0,2.44-1.71l1.86-1.51,1.24-1.22,1-1Z" transform="translate(-273.16 -279.24)"/><path class="cls-1" d="M407.79,357.59v0a9,9,0,0,1,9.15-9.18,9.54,9.54,0,0,1,6.81,2.41l-2,2.36a7,7,0,0,0-5-1.9,6,6,0,0,0-5.75,6.26v.05c0,3.65,2.4,6.33,6,6.33a7.24,7.24,0,0,0,4.28-1.34v-3.32h-4.54V356.5h7.56V364a11.29,11.29,0,0,1-7.4,2.76A8.8,8.8,0,0,1,407.79,357.59Z" transform="translate(-273.16 -279.24)"/><path class="cls-1" d="M429.91,348.67h7.91a7.19,7.19,0,0,1,5.12,1.77,5.39,5.39,0,0,1,1.47,3.83v.05a5.32,5.32,0,0,1-4.24,5.37l4.79,6.72h-3.67l-4.36-6.19H433v6.19h-3.12Zm7.68,8.79c2.23,0,3.65-1.16,3.65-3v-.05c0-1.91-1.37-2.95-3.68-2.95H433v6Z" transform="translate(-273.16 -279.24)"/><path class="cls-1" d="M448.43,357.59v0a9.28,9.28,0,0,1,18.55-.05v.05a9.28,9.28,0,0,1-18.55,0Zm15.28,0v0a6.08,6.08,0,0,0-6-6.31,6,6,0,0,0-6,6.26v.05a6.08,6.08,0,0,0,6,6.31A6,6,0,0,0,463.71,357.59Z" transform="translate(-273.16 -279.24)"/><path class="cls-1" d="M471.76,358.88V348.67h3.12v10.08c0,3.3,1.7,5.07,4.49,5.07s4.46-1.67,4.46-4.94V348.67h3.11v10.06c0,5.3-3,8-7.63,8S471.76,364,471.76,358.88Z" transform="translate(-273.16 -279.24)"/><path class="cls-1" d="M492.72,348.67h7c4.13,0,6.74,2.35,6.74,5.93v0c0,4-3.19,6.06-7.09,6.06h-3.53v5.7h-3.11Zm6.74,9.22c2.36,0,3.83-1.32,3.83-3.17v-.05c0-2.08-1.5-3.17-3.83-3.17h-3.63v6.39Z" transform="translate(-273.16 -279.24)"/><path class="cls-1" d="M511.2,353.94a2.35,2.35,0,0,1-1.79-.81l.54-.53a1.83,1.83,0,0,0,1.31.6c.7,0,1-.25,1-.74s-.3-.58-1.14-.83c-1.06-.32-1.57-.58-1.57-1.48a1.48,1.48,0,0,1,1.66-1.4,2.24,2.24,0,0,1,1.64.68l-.53.54a1.52,1.52,0,0,0-1.17-.48c-.59,0-.84.29-.84.62s.23.53,1.1.79,1.61.62,1.61,1.51S512.49,353.94,511.2,353.94Z" transform="translate(-273.16 -279.24)"/><path class="cls-1" d="M517.69,353.86V351.2c0-.3,0-.74,0-.88l-.33.79-1.22,2.83L515,351.11l-.32-.79c0,.14,0,.58,0,.88v2.66h-.71v-5h.78l1.13,2.68c.12.29.28.65.34.86.07-.21.22-.57.34-.86l1.11-2.68h.8v5Z" transform="translate(-273.16 -279.24)"/><path class="cls-1" d="M341.91,312.06a3.79,3.79,0,1,1,3.79-3.78A3.82,3.82,0,0,1,341.91,312.06Zm-3.3,27.22V314.12h6.61v25.16Z" transform="translate(-273.16 -279.24)"/><path class="cls-1" d="M366.82,339.28V325.67c0-4.5-1.54-5.84-4.27-5.84s-4.31,1.34-4.31,5.7v13.75h-6.61V314.12h6.61v1.68a8.23,8.23,0,0,1,5.89-2.2c6.42,0,9.3,4.4,9.3,11.5v14.18Z" transform="translate(-273.16 -279.24)"/><path class="cls-1" d="M393.5,339.28V337.7a7.74,7.74,0,0,1-5.31,2.1c-5.37,0-9.78-4-9.78-13.41,0-7.52,3.55-12.79,9.78-12.79a8,8,0,0,1,5.31,2v-7.9l6.62-3.31v34.93Zm0-17.3a5.23,5.23,0,0,0-4.45-2.15c-2.54,0-3.93,2.2-3.93,6.42,0,5.17,1.73,7.33,4.31,7.33a4.63,4.63,0,0,0,4.07-2.11Z" transform="translate(-273.16 -279.24)"/><path class="cls-1" d="M421.58,327.39H414.2v11.89h-6.7V305.74h14.66c6.32,0,11.55,3.5,11.55,10.64C433.71,324.14,428.53,327.39,421.58,327.39Zm.34-15.14H414.2v8.63H422c3.12,0,4.8-1.44,4.8-4.36S424.89,312.25,421.92,312.25Z" transform="translate(-273.16 -279.24)"/><path class="cls-1" d="M446.74,339.8c-6.57,0-11.36-5.36-11.36-13.08s4.79-13.12,11.36-13.12,11.4,5.41,11.4,13.12S453.3,339.8,446.74,339.8Zm0-19.83c-3.16,0-4.65,2.87-4.65,6.75s1.49,6.71,4.65,6.71,4.69-3.21,4.69-6.71C451.43,322.89,449.9,320,446.74,320Z" transform="translate(-273.16 -279.24)"/><path class="cls-1" d="M466.54,312.06a3.79,3.79,0,1,1,3.79-3.78A3.82,3.82,0,0,1,466.54,312.06Zm-3.31,27.22V314.12h6.62v25.16Z" transform="translate(-273.16 -279.24)"/><path class="cls-1" d="M491.45,339.28V325.67c0-4.5-1.54-5.84-4.27-5.84s-4.31,1.34-4.31,5.7v13.75h-6.61V314.12h6.61v1.68a8.23,8.23,0,0,1,5.89-2.2c6.42,0,9.3,4.4,9.3,11.5v14.18Z" transform="translate(-273.16 -279.24)"/><path class="cls-1" d="M517.88,338.27a8.83,8.83,0,0,1-5.13,1.53c-4.07,0-6.71-3.16-6.71-7.57V320.35h-4.21v-6.23H506v-6.46l6.62-3.31v9.77h6v6.23h-6v10.11c0,2.4.86,3,2.44,3,1.2,0,2.11-.53,3.74-1.92Z" transform="translate(-273.16 -279.24)"/></svg>