<svg id="Layer_1" data-name="Layer 1" xmlns="http://www.w3.org/2000/svg" viewBox="0 0 313.03 64.48"><title>horizontal</title><path d="M67.71,48.26V14.07H83.54a11.5,11.5,0,0,1,8.09,2.85,9.62,9.62,0,0,1,3.1,7.41,9.4,9.4,0,0,1-3.13,7.32,11.53,11.53,0,0,1-8.06,2.84H72.84V48.26ZM83,18.56H72.84V30.14H83a6.91,6.91,0,0,0,4.77-1.59,5.38,5.38,0,0,0,1.78-4.22,5.33,5.33,0,0,0-1.78-4.21A7,7,0,0,0,83,18.56Z" transform="translate(-14.21 -8.97)"/><path d="M105.87,48.26V14.07h25.21v4.49H111V28.82h13.19v4.4H111V43.77h20.27v4.49Z" transform="translate(-14.21 -8.97)"/><path d="M142.41,48.26V14.07H158a11.88,11.88,0,0,1,8.23,2.81,9.31,9.31,0,0,1,3.15,7.3,9.28,9.28,0,0,1-1.9,5.84,10.53,10.53,0,0,1-5.13,3.54l7.62,14.7h-5.67l-7.08-14h-9.63v14Zm15.1-29.7h-10V30h10a7.13,7.13,0,0,0,4.81-1.58,5.22,5.22,0,0,0,1.83-4.13,5.21,5.21,0,0,0-1.83-4.16A7.17,7.17,0,0,0,157.51,18.56Z" transform="translate(-14.21 -8.97)"/><path d="M177.54,48.26l14.17-34.19h6l14,34.19h-5.57l-4-10H186.87l-4,10Zm11-14.26H200.5l-6-15Z" transform="translate(-14.21 -8.97)"/><path d="M212,18.61V14.07h29.17v4.54h-12V48.26H224V18.61Z" transform="translate(-14.21 -8.97)"/><path d="M283.12,31.17a17.35,17.35,0,0,1-1.4,6.91,18.08,18.08,0,0,1-23.42,9.35,17.23,17.23,0,0,1-5.65-3.73,17.82,17.82,0,0,1-3.76-5.62,17.9,17.9,0,0,1,0-13.83,17.82,17.82,0,0,1,3.76-5.62,17.23,17.23,0,0,1,5.65-3.73,18.49,18.49,0,0,1,14,0,17.2,17.2,0,0,1,9.45,9.35A17.36,17.36,0,0,1,283.12,31.17Zm-5.23,0a13.29,13.29,0,0,0-1-5.11,12.79,12.79,0,0,0-2.66-4.1,12.17,12.17,0,0,0-4-2.72,12.68,12.68,0,0,0-5-1,12.46,12.46,0,0,0-4.93,1,12.15,12.15,0,0,0-4,2.72,12.81,12.81,0,0,0-2.67,4.1,13.92,13.92,0,0,0,0,10.21,12.39,12.39,0,0,0,6.65,6.79,12.14,12.14,0,0,0,4.93,1,12.35,12.35,0,0,0,5-1,12.26,12.26,0,0,0,6.67-6.79A13.28,13.28,0,0,0,277.89,31.17Z" transform="translate(-14.21 -8.97)"/><path d="M98,60V56.39h15.11V60h-5.49V73.18H103.5V60Z" transform="translate(-14.21 -8.97)"/><path d="M137.32,64.79a8.3,8.3,0,0,1-.7,3.39,8.58,8.58,0,0,1-1.89,2.76,8.88,8.88,0,0,1-2.86,1.83,9.61,9.61,0,0,1-7.05,0A8.94,8.94,0,0,1,122,70.94a8.77,8.77,0,0,1-1.9-2.76,8.7,8.7,0,0,1,0-6.79,8.77,8.77,0,0,1,1.9-2.76,8.94,8.94,0,0,1,2.85-1.83,9.61,9.61,0,0,1,7.05,0,8.88,8.88,0,0,1,2.86,1.83,8.58,8.58,0,0,1,1.89,2.76A8.35,8.35,0,0,1,137.32,64.79Zm-4.25,0a5.1,5.1,0,0,0-.36-1.93,4.62,4.62,0,0,0-4.36-2.94A4.66,4.66,0,0,0,125,61.31a4.7,4.7,0,0,0-1,1.55,5.1,5.1,0,0,0-.36,1.93,5.17,5.17,0,0,0,.36,1.93,4.66,4.66,0,0,0,1,1.54,4.34,4.34,0,0,0,1.5,1,4.91,4.91,0,0,0,3.74,0,4.34,4.34,0,0,0,1.5-1,4.64,4.64,0,0,0,1-1.54A5.17,5.17,0,0,0,133.07,64.79Z" transform="translate(-14.21 -8.97)"/><path d="M162.84,64.79a8.47,8.47,0,0,1-.7,3.39,8.58,8.58,0,0,1-1.89,2.76,8.88,8.88,0,0,1-2.86,1.83,9.61,9.61,0,0,1-7,0,8.94,8.94,0,0,1-2.85-1.83,8.77,8.77,0,0,1-1.9-2.76,8.7,8.7,0,0,1,0-6.79,8.77,8.77,0,0,1,1.9-2.76,8.94,8.94,0,0,1,2.85-1.83,9.61,9.61,0,0,1,7,0,8.88,8.88,0,0,1,2.86,1.83,8.63,8.63,0,0,1,2.59,6.16Zm-4.25,0a5.1,5.1,0,0,0-.36-1.93,4.68,4.68,0,0,0-1-1.55,4.86,4.86,0,0,0-1.5-1,4.75,4.75,0,0,0-5.24,1,4.55,4.55,0,0,0-1,1.55,5.1,5.1,0,0,0-.36,1.93,5.17,5.17,0,0,0,.36,1.93,4.51,4.51,0,0,0,1,1.54,4.34,4.34,0,0,0,1.5,1,4.91,4.91,0,0,0,3.74,0,4.54,4.54,0,0,0,1.5-1,4.64,4.64,0,0,0,1-1.54A5.17,5.17,0,0,0,158.59,64.79Z" transform="translate(-14.21 -8.97)"/><path d="M171,73.18V56.39h4.13V69.53H184v3.65Z" transform="translate(-14.21 -8.97)"/><path d="M211.52,69.61a5,5,0,0,0,2.27-.53,5.83,5.83,0,0,0,1.88-1.56l2.71,2.66a8.35,8.35,0,0,1-3.08,2.35,9.23,9.23,0,0,1-3.92.89,9.36,9.36,0,0,1-3.56-.67A9,9,0,0,1,205,70.93a8.39,8.39,0,0,1-1.89-2.74,8.24,8.24,0,0,1-.7-3.4,8.34,8.34,0,0,1,.7-3.42,8.21,8.21,0,0,1,1.9-2.75,9,9,0,0,1,2.87-1.82,9.27,9.27,0,0,1,3.55-.67,9.12,9.12,0,0,1,2.06.24,10.86,10.86,0,0,1,2,.66,8.25,8.25,0,0,1,1.72,1,7.63,7.63,0,0,1,1.37,1.35l-2.78,2.74a6.18,6.18,0,0,0-2-1.67,5.16,5.16,0,0,0-2.36-.56,4.62,4.62,0,0,0-4.4,2.94,4.92,4.92,0,0,0-.37,1.93,4.77,4.77,0,0,0,.37,1.9,4.59,4.59,0,0,0,1,1.53,4.72,4.72,0,0,0,1.56,1A5,5,0,0,0,211.52,69.61Z" transform="translate(-14.21 -8.97)"/><path d="M243,64.79a8.3,8.3,0,0,1-.7,3.39,8.58,8.58,0,0,1-1.89,2.76,8.88,8.88,0,0,1-2.86,1.83,9.61,9.61,0,0,1-7,0,8.94,8.94,0,0,1-2.85-1.83,8.77,8.77,0,0,1-1.9-2.76,8.7,8.7,0,0,1,0-6.79,8.77,8.77,0,0,1,1.9-2.76,8.94,8.94,0,0,1,2.85-1.83,9.61,9.61,0,0,1,7,0,8.88,8.88,0,0,1,2.86,1.83,8.58,8.58,0,0,1,1.89,2.76A8.35,8.35,0,0,1,243,64.79Zm-4.25,0a5.1,5.1,0,0,0-.36-1.93,4.68,4.68,0,0,0-1-1.55,4.86,4.86,0,0,0-1.5-1,4.75,4.75,0,0,0-5.24,1,4.55,4.55,0,0,0-1,1.55,5.1,5.1,0,0,0-.36,1.93,5.17,5.17,0,0,0,.36,1.93,4.51,4.51,0,0,0,1,1.54,4.34,4.34,0,0,0,1.5,1,4.91,4.91,0,0,0,3.74,0,4.54,4.54,0,0,0,1.5-1,4.64,4.64,0,0,0,1-1.54A5.17,5.17,0,0,0,238.74,64.79Z" transform="translate(-14.21 -8.97)"/><path d="M251.91,69a2.25,2.25,0,1,1-1.57.66A2.14,2.14,0,0,1,251.91,69Z" transform="translate(-14.21 -8.97)"/><path d="M56.5,22.29A21.4,21.4,0,0,0,44.82,10.73a22.91,22.91,0,0,0-17.27,0,21.43,21.43,0,0,0-7,4.62,22,22,0,0,0-4.65,6.94,22.09,22.09,0,0,0,0,17.09,22,22,0,0,0,4.65,6.94,21.43,21.43,0,0,0,7,4.62,22.91,22.91,0,0,0,17.27,0A21.4,21.4,0,0,0,56.5,39.38a22.09,22.09,0,0,0,0-17.09ZM51.74,37.65a16.68,16.68,0,0,1-15.52,10.4,16.3,16.3,0,0,1-6.58-1.34,16.47,16.47,0,0,1-8.87-9.06,18.38,18.38,0,0,1,0-13.63,17.21,17.21,0,0,1,3.55-5.48,16.15,16.15,0,0,1,5.32-3.62,16.79,16.79,0,0,1,6.58-1.3,17.06,17.06,0,0,1,6.62,1.3,16.17,16.17,0,0,1,5.35,3.62A17.21,17.21,0,0,1,51.74,24,17.69,17.69,0,0,1,53,30.83,17.7,17.7,0,0,1,51.74,37.65Z" transform="translate(-14.21 -8.97)"/><path d="M317.7,33.36a13.15,13.15,0,0,0,6.42-4.44,11.57,11.57,0,0,0,2.38-7.3,11.67,11.67,0,0,0-3.94-9.14A14.91,14.91,0,0,0,312.26,9H292.82V51.75H298l-.07-17.54h14.64l8.88,17.54h5.81Zm-6-4.47H298V13.51h13.69c4.54.12,6.09,1.13,7.54,2.48a6.77,6.77,0,0,1,2.35,5.19,7,7,0,0,1-2.1,5.44C317.93,27.94,316.66,28.89,311.71,28.89Z" transform="translate(-14.21 -8.97)"/></svg>
