<?xml version="1.0" encoding="utf-8"?>
<!DOCTYPE svg PUBLIC "-//W3C//DTD SVG 1.1//EN" "http://www.w3.org/Graphics/SVG/1.1/DTD/svg11.dtd">
<svg version="1.1" xmlns="http://www.w3.org/2000/svg">

  <symbol id="cl_logo" viewBox="0 0 500 78">
    <polygon fill="currentColor" points="407.5,16 401.5,16 401.5,67 495.5,67 495.5,61 407.5,61 	"/>
  	<path fill="currentColor" d="M495.4,28.3c0-4.9-4-9-9-9H465v27.2l0,3.2h21.6c4.9,0,9-4,9-9c0-2.3-0.9-4.6-2.5-6.2
  		C494.5,32.9,495.4,30.7,495.4,28.3z M470.4,31.8v-7h16.1c1.9,0,3.5,1.6,3.5,3.5s-1.6,3.5-3.5,3.5H470.4z M490,40.8
  		c0,1.9-1.6,3.5-3.5,3.5h-16.1v-7h16.1C488.4,37.3,490,38.9,490,40.8z"/>
  	<path fill="currentColor" d="M429.6,45.1h16.3l2.5,5.1l4.9-2.4L438,16.6l-15.9,31.1l4.9,2.5L429.6,45.1z M437.9,28.8l5.3,10.8h-10.8
  		L437.9,28.8z"/>
  	<path fill="currentColor" d="M162.5,18.7h-15.9v30.8h15.9c8.5,0,15.4-6.9,15.4-15.4S171,18.7,162.5,18.7z M162.5,43.9h-10.2V24.4h10.2
  		c5.4,0,9.7,4.4,9.7,9.7C172.2,39.5,167.8,43.9,162.5,43.9z"/>
  	<path fill="currentColor" d="M318.4,19.2c-8.4,0-15.2,6.8-15.2,15.2c0,8.4,6.8,15.2,15.2,15.2c8.4,0,15.2-6.8,15.2-15.2
  		C333.6,26,326.8,19.2,318.4,19.2z M328,34.4c0,5.3-4.3,9.5-9.5,9.5c-5.3,0-9.5-4.3-9.5-9.5s4.3-9.5,9.5-9.5
  		C323.7,24.9,328,29.2,328,34.4z"/>
  	<polygon fill="currentColor" points="127.9,38.5 102.4,17.6 102.4,49.2 108,49.2 108,29.6 133.6,50.4 133.6,18.8 127.9,18.8 	"/>
  	<polygon fill="currentColor" points="266.1,24.7 278.6,24.7 278.6,49.3 284.2,49.3 284.2,24.7 296.2,24.7 296.2,19 266.1,19 	"/>
  	<path fill="currentColor" d="M373.9,28.1c0-5.1-4.2-9.3-9.3-9.3h-21.8v30.6h5.7v-12h13.7l6.9,12.9l5-2.7l-5.9-10.9
  		C371.7,35.2,373.9,31.8,373.9,28.1z M368.3,28.1c0,2-1.6,3.6-3.6,3.6h-16.1v-7.3h16.1C366.7,24.4,368.3,26.1,368.3,28.1z"/>
  	<path fill="currentColor" d="M253.2,38.3c-1.5,3.6-5.1,6-9.1,6c-5.4,0-9.8-4.4-9.8-9.8s4.4-9.8,9.8-9.8c3.7,0,7.2,2.2,8.8,5.5l0.5,1.1
  		l5.1-2.5l-0.5-1.1c-2.6-5.3-8-8.7-13.9-8.7c-8.5,0-15.5,6.9-15.5,15.5S235.7,50,244.2,50c6.2,0,11.8-3.7,14.3-9.5l0.5-1.2l-5.2-2.2
  		L253.2,38.3z"/>
  	<path fill="currentColor" d="M213.7,34.3c0,5.5-4.5,9.9-9.9,9.9c-5.5,0-9.9-4.5-9.9-9.9V19.2h-5.7v15.1c0,8.6,7,15.6,15.6,15.6
  		c8.6,0,15.6-7,15.6-15.6V19.2h-5.7V34.3z"/>
  	<path fill="currentColor" d="M76.5,19.2c-8.4,0-15.2,6.8-15.2,15.2c0,8.4,6.8,15.2,15.2,15.2s15.2-6.8,15.2-15.2
  		C91.6,26,84.8,19.2,76.5,19.2z M76.5,43.9c-5.3,0-9.5-4.3-9.5-9.5s4.3-9.5,9.5-9.5c5.3,0,9.5,4.3,9.5,9.5S81.7,43.9,76.5,43.9z"/>
  	<path fill="currentColor" d="M47.6,48.7c-3,6.9-9.7,11.3-17.2,11.3c-10.3,0-18.7-8.4-18.7-18.7s8.4-18.7,18.7-18.7c7.2,0,13.6,4,16.8,10.4
  		l0.3,0.6l5.9-2.9l-0.3-0.6C48.9,21.6,40,16,30.4,16C16.4,16,5.1,27.3,5.1,41.3c0,13.9,11.3,25.3,25.3,25.3c10.1,0,19.2-6,23.2-15.3
  		l0.3-0.6L47.8,48L47.6,48.7z"/>
  </symbol>

  <symbol id="tonic_logo" viewBox="0 0 198.4 119.8">
    <path fill="currentColor" d="M91.2,16.5c7.4,1.6,15.9,3.3,23.3,3.3c8.7,0,15.5-3.9,15.5-8.8c0-6.6-10.2-7.1-13.4-7.1
      c-9.4,0-17.5,2.8-26.1,9.2c-5.9-1.4-12.2-3-18.2-4.6C56.9,4.2,40.9,0,28.6,0C14.7,0,0,6.5,0,18.5c0,7.7,8.1,16,21.3,16
      c11.3,0,20.6-3.8,27.6-11.4l0.8-0.8l-2.6-1.9l-0.6,0.7c-6.3,6.8-14.8,10.2-25.2,10.2c-8.7,0-18.1-4.9-18.1-12.8
      c0-7.6,8.7-15.3,25.4-15.3c12,0,28,4.3,43.4,8.4c5.1,1.4,10.3,2.7,15.3,4C69.2,30.6,46,63.1,10.2,117.1l-0.5,0.8l2.6,1.9l0.6-0.9
      C49.8,63.3,73.2,30.4,91.2,16.5z M114.5,16.6c-6.3,0-13.6-1.3-19.8-2.6c7.1-4.8,13.9-6.9,21.9-6.9c2.4,0,10.2,0.3,10.2,3.9
      C126.8,13.7,122.1,16.6,114.5,16.6z"/>
    <path fill="currentColor" d="M163.1,64.5c1.5,0,3-1.6,3-3.2c0-1.5-1.5-3-3-3c-1.6,0-3.2,1.5-3.2,3C160,63,161.5,64.5,163.1,64.5z"/>
    <path fill="currentColor" d="M195.8,92.6l-0.6,0.7c-8.5,9.9-23.5,20.5-32.5,20.5c-1.9,0-5.1-0.8-5.1-5.8c0-4.1,1.6-8.5,4.1-12.5l0.1-0.1
      l0.7-0.8l-0.1-0.1c6.8-10.3,19-18.9,25.1-18.9c1.9,0,1.9,0.6,1.9,0.9c0,4.9-7.3,12.7-15.1,16.1l-0.9,0.4l1.2,3.1l1-0.4
      c8.1-3.7,17-12.4,17-19.1c0-2-1.8-4.1-5.1-4.1c-7.6,0-20.5,9.4-27.7,20.5l-0.4,0.5c-12.7,14.9-22.2,20.2-26.4,20.2
      c-0.5,0-1.4,0-1.4-1.9c0-4.5,5.8-13.8,18.9-29.8l4.3-5.2l-2.6-1.9l-4.1,5.1c-7.3,8.5-10.3,12-11.1,13l-0.3,0.4
      c-14.1,16.5-23.7,20.9-26.8,20.9c-1,0-1.3-0.2-1.3-1.5c0-4,5.5-10.7,10.8-17.2c5.7-7,11.1-13.6,11.1-18.2c0-2.2-1.5-4.5-4.2-4.5
      c-5,0-12.8,6.4-19.6,13c4.3-6.8,4.3-8.7,4.3-9.5c0-2.5-1.4-4-3.6-4c-3.9,0-11.1,8-21.5,20.3l0,0l-0.6,0.7
      c-10,11.7-18.4,15.6-23.6,15.6c9.7-8.9,19.5-23.3,19.5-32.1c0-4.1-2.7-5.6-5.2-5.6c-6.7,0-16.8,8.9-21.6,18.5L53,88.5l-0.7,0.7
      c-6.8,6.8-11.6,15.7-11.6,21.6c0,3.9,2.3,6.5,5.8,6.5c3.1,0,7.1-1.9,11.8-5.6c7.3,2.2,18.5-3.8,28.7-15.6l0,0l0.8-0.9l0.5-0.6l0,0
      l0.2-0.3c7.1-8.3,15.9-18.7,18.7-18.7c0.2,0,0.3,0,0.4,0c0,0.1,0.1,0.3,0.1,0.8c0,3.9-12.8,20.8-19.7,29.8
      c-2.4,3.2-4.5,5.9-5.7,7.6l-0.6,0.8l2.5,1.9l0.6-0.8C102.7,92.4,119.7,76,126.3,76c0.7,0,1,0.1,1,1.3c0,3.5-5.2,9.9-10.2,16
      c-5.8,7-11.7,14.3-11.7,19.4c0,2.3,1.4,4.7,4.5,4.7c4,0,11.5-4.1,20.7-12.9c-1.4,2.9-2.1,5.2-2.1,7.1c0,2.5,1.6,5.1,4.6,5.1
      c4.2,0,12-3.9,22.2-14.2c-0.5,1.9-0.8,3.7-0.8,5.5c0,6.2,4.2,9,8.3,9c9,0,24.7-9.7,35-21.7l0.7-0.8L195.8,92.6z M75.9,74.5
      c1.2,0,2,0.4,2,2.4c0,8.2-10.4,22.9-19.9,31.1c-2.2-1.3-3.3-4.1-3.3-7.9C54.7,88.5,68.9,74.5,75.9,74.5z M51.5,100
      c0,5.6,1.9,8.6,3.8,10.1c-3.5,2.6-6.6,4-8.8,4c-1.3,0-2.6-0.4-2.6-3.3c0-4.6,3.5-11.4,8.8-17.2C51.9,95.8,51.5,98,51.5,100z"/>
  </symbol>

  <symbol id="example" viewBox="0 0 100 100">
    <path fill="currentColor" d="M59.5,10H17.2v80.3h65.2V32L59.5,10z M60.2,19l13.2,12.7H60.2V19z M23.2,84.3V16h31v21.7h22.1v46.6H23.2z"/>
  </symbol>

  <symbol id="checkbox_on" viewBox="0 0 100 100">
    <path fill="currentColor" d="M79.7,1H21.3C10.4,1,1.5,9.9,1.5,20.8v58.4C1.5,90.1,10.4,99,21.3,99h58.4c10.9,0,19.8-8.9,19.8-19.8V20.8C99.5,9.9,90.6,1,79.7,1z M93.3,79.3c0,7.5-6.1,13.6-13.6,13.6H21.3c-7.5,0-13.6-6.1-13.6-13.6V20.9c0-7.5,6.1-13.6,13.6-13.6V7.2h58.4c7.5,0,13.6,6.1,13.6,13.6V79.3z"/>
    <polygon fill="currentColor" points="44,61.7 23.4,41.1 17.5,47 44,73.5 85.1,32.4 79.2,26.5 "/>
  </symbol>

  <symbol id="checkbox_off" viewBox="0 0 100 100">
    <path fill="currentColor" d="M79.7,99H21.3C10.4,99,1.5,90.1,1.5,79.2V20.8C1.5,9.9,10.4,1,21.3,1h58.4c10.9,0,19.8,8.9,19.8,19.8v58.4C99.5,90.1,90.6,99,79.7,99z M21.3,7.3c-7.5,0-13.6,6.1-13.6,13.6v58.4c0,7.5,6.1,13.6,13.6,13.6h58.4c7.5,0,13.6-6.1,13.6-13.6V20.8c0-7.5-6.1-13.6-13.6-13.6H21.3V7.3z"/>
  </symbol>

  <symbol id="custom_on" viewBox="0 0 100 100">
    <path fill="currentColor" d="M75.7,90.7L49.5,71.1L23.4,90.7V9.9h52.3V90.7z"/>
  </symbol>

  <symbol id="custom_off" viewBox="0 0 100 100">
    <path fill="currentColor" d="M75.7,90.7L49.5,71.1L23.4,90.7V9.9h52.3V90.7z M29.6,16.1v62.1l19.9-14.9l19.9,14.9V16.1H29.6z"/>
  </symbol>

</svg>
