<?xml version="1.0" encoding="utf-8"?>
<!DOCTYPE svg PUBLIC "-//W3C//DTD SVG 1.1//EN" "http://www.w3.org/Graphics/SVG/1.1/DTD/svg11.dtd">
<svg version="1.1" xmlns="http://www.w3.org/2000/svg">

  <symbol id="cl_logo" viewBox="0 0 500 78">
    <polygon fill="currentColor" points="407.5,16 401.5,16 401.5,67 495.5,67 495.5,61 407.5,61 	"/>
  	<path fill="currentColor" d="M495.4,28.3c0-4.9-4-9-9-9H465v27.2l0,3.2h21.6c4.9,0,9-4,9-9c0-2.3-0.9-4.6-2.5-6.2
  		C494.5,32.9,495.4,30.7,495.4,28.3z M470.4,31.8v-7h16.1c1.9,0,3.5,1.6,3.5,3.5s-1.6,3.5-3.5,3.5H470.4z M490,40.8
  		c0,1.9-1.6,3.5-3.5,3.5h-16.1v-7h16.1C488.4,37.3,490,38.9,490,40.8z"/>
  	<path fill="currentColor" d="M429.6,45.1h16.3l2.5,5.1l4.9-2.4L438,16.6l-15.9,31.1l4.9,2.5L429.6,45.1z M437.9,28.8l5.3,10.8h-10.8
  		L437.9,28.8z"/>
  	<path fill="currentColor" d="M162.5,18.7h-15.9v30.8h15.9c8.5,0,15.4-6.9,15.4-15.4S171,18.7,162.5,18.7z M162.5,43.9h-10.2V24.4h10.2
  		c5.4,0,9.7,4.4,9.7,9.7C172.2,39.5,167.8,43.9,162.5,43.9z"/>
  	<path fill="currentColor" d="M318.4,19.2c-8.4,0-15.2,6.8-15.2,15.2c0,8.4,6.8,15.2,15.2,15.2c8.4,0,15.2-6.8,15.2-15.2
  		C333.6,26,326.8,19.2,318.4,19.2z M328,34.4c0,5.3-4.3,9.5-9.5,9.5c-5.3,0-9.5-4.3-9.5-9.5s4.3-9.5,9.5-9.5
  		C323.7,24.9,328,29.2,328,34.4z"/>
  	<polygon fill="currentColor" points="127.9,38.5 102.4,17.6 102.4,49.2 108,49.2 108,29.6 133.6,50.4 133.6,18.8 127.9,18.8 	"/>
  	<polygon fill="currentColor" points="266.1,24.7 278.6,24.7 278.6,49.3 284.2,49.3 284.2,24.7 296.2,24.7 296.2,19 266.1,19 	"/>
  	<path fill="currentColor" d="M373.9,28.1c0-5.1-4.2-9.3-9.3-9.3h-21.8v30.6h5.7v-12h13.7l6.9,12.9l5-2.7l-5.9-10.9
  		C371.7,35.2,373.9,31.8,373.9,28.1z M368.3,28.1c0,2-1.6,3.6-3.6,3.6h-16.1v-7.3h16.1C366.7,24.4,368.3,26.1,368.3,28.1z"/>
  	<path fill="currentColor" d="M253.2,38.3c-1.5,3.6-5.1,6-9.1,6c-5.4,0-9.8-4.4-9.8-9.8s4.4-9.8,9.8-9.8c3.7,0,7.2,2.2,8.8,5.5l0.5,1.1
  		l5.1-2.5l-0.5-1.1c-2.6-5.3-8-8.7-13.9-8.7c-8.5,0-15.5,6.9-15.5,15.5S235.7,50,244.2,50c6.2,0,11.8-3.7,14.3-9.5l0.5-1.2l-5.2-2.2
  		L253.2,38.3z"/>
  	<path fill="currentColor" d="M213.7,34.3c0,5.5-4.5,9.9-9.9,9.9c-5.5,0-9.9-4.5-9.9-9.9V19.2h-5.7v15.1c0,8.6,7,15.6,15.6,15.6
  		c8.6,0,15.6-7,15.6-15.6V19.2h-5.7V34.3z"/>
  	<path fill="currentColor" d="M76.5,19.2c-8.4,0-15.2,6.8-15.2,15.2c0,8.4,6.8,15.2,15.2,15.2s15.2-6.8,15.2-15.2
  		C91.6,26,84.8,19.2,76.5,19.2z M76.5,43.9c-5.3,0-9.5-4.3-9.5-9.5s4.3-9.5,9.5-9.5c5.3,0,9.5,4.3,9.5,9.5S81.7,43.9,76.5,43.9z"/>
  	<path fill="currentColor" d="M47.6,48.7c-3,6.9-9.7,11.3-17.2,11.3c-10.3,0-18.7-8.4-18.7-18.7s8.4-18.7,18.7-18.7c7.2,0,13.6,4,16.8,10.4
  		l0.3,0.6l5.9-2.9l-0.3-0.6C48.9,21.6,40,16,30.4,16C16.4,16,5.1,27.3,5.1,41.3c0,13.9,11.3,25.3,25.3,25.3c10.1,0,19.2-6,23.2-15.3
  		l0.3-0.6L47.8,48L47.6,48.7z"/>
  </symbol>

  <symbol id="mp_logo" viewBox="0 0 245.68 87.47">
    <path fill="currentColor" d="M290.56,307.77h6.93l11.27,17.51L320,307.77H327v28.42a25.53,25.53,0,1,0-36.4.27Z" transform="translate(-273.16 -279.24)"/>
    <path fill="currentColor" d="M320.45,318.24,308.76,335.7h-.21L297,318.35v22.78a25.51,25.51,0,0,0,23.49-.07Z" transform="translate(-273.16 -279.24)"/>
    <path d="M332.32,341.58l-1.08,1-1.3,1.15c-.54.41-1.17.85-1.86,1.35a21.29,21.29,0,0,1-2.4,1.53c-.46.26-.91.56-1.41.81l-1.58.73a33.31,33.31,0,0,1-7.64,2.42,36.5,36.5,0,0,1-4.55.46c-.78,0-1.63.09-2.37,0l-2.55-.18a34.51,34.51,0,0,1-10-2.76,32.37,32.37,0,0,1-15.75-15.61,33,33,0,0,1-3-10.94c0-.94-.07-1.88-.11-2.81v-.26l0-.37,0-.73.09-1.46a8.17,8.17,0,0,1,.16-1.37l.2-1.31a22.21,22.21,0,0,1,.58-2.61,32,32,0,0,1,4.16-9.31,30.59,30.59,0,0,1,6.08-6.8,31.12,31.12,0,0,1,3.26-2.42c.52-.38,1.1-.64,1.62-1a17,17,0,0,1,1.57-.83A34,34,0,0,1,300,288.2l2.13-.55,1-.18,0,3.74,10.33-6-10.4-5.92,0,3.88-1.82.25-2.43.61a35,35,0,0,0-6.27,2.48,19.5,19.5,0,0,0-1.76,1c-.59.36-1.23.68-1.82,1.11a35.87,35.87,0,0,0-3.63,2.81,34.69,34.69,0,0,0-6.69,7.81,35.8,35.8,0,0,0-4.46,10.53,26.9,26.9,0,0,0-.59,3c-.07.51-.13,1-.2,1.54a11.78,11.78,0,0,0-.14,1.51l-.05,1.46,0,.73v.84c.06,1,.12,2.06.19,3.1a35.08,35.08,0,0,0,21.18,28.47A36,36,0,0,0,305.47,353L308,353h.68l.64,0,1.26-.09a37.16,37.16,0,0,0,4.78-.68,35.08,35.08,0,0,0,7.91-2.84l1.61-.83c.52-.28,1-.61,1.43-.89a23.41,23.41,0,0,0,2.44-1.71l1.86-1.51,1.24-1.22,1-1Z" transform="translate(-273.16 -279.24)"/>
    <path fill="currentColor" d="M407.79,357.59v0a9,9,0,0,1,9.15-9.18,9.54,9.54,0,0,1,6.81,2.41l-2,2.36a7,7,0,0,0-5-1.9,6,6,0,0,0-5.75,6.26v.05c0,3.65,2.4,6.33,6,6.33a7.24,7.24,0,0,0,4.28-1.34v-3.32h-4.54V356.5h7.56V364a11.29,11.29,0,0,1-7.4,2.76A8.8,8.8,0,0,1,407.79,357.59Z" transform="translate(-273.16 -279.24)"/>
    <path fill="currentColor" d="M429.91,348.67h7.91a7.19,7.19,0,0,1,5.12,1.77,5.39,5.39,0,0,1,1.47,3.83v.05a5.32,5.32,0,0,1-4.24,5.37l4.79,6.72h-3.67l-4.36-6.19H433v6.19h-3.12Zm7.68,8.79c2.23,0,3.65-1.16,3.65-3v-.05c0-1.91-1.37-2.95-3.68-2.95H433v6Z" transform="translate(-273.16 -279.24)"/>
    <path fill="currentColor" d="M448.43,357.59v0a9.28,9.28,0,0,1,18.55-.05v.05a9.28,9.28,0,0,1-18.55,0Zm15.28,0v0a6.08,6.08,0,0,0-6-6.31,6,6,0,0,0-6,6.26v.05a6.08,6.08,0,0,0,6,6.31A6,6,0,0,0,463.71,357.59Z" transform="translate(-273.16 -279.24)"/>
    <path fill="currentColor" d="M471.76,358.88V348.67h3.12v10.08c0,3.3,1.7,5.07,4.49,5.07s4.46-1.67,4.46-4.94V348.67h3.11v10.06c0,5.3-3,8-7.63,8S471.76,364,471.76,358.88Z" transform="translate(-273.16 -279.24)"/>
    <path fill="currentColor" d="M492.72,348.67h7c4.13,0,6.74,2.35,6.74,5.93v0c0,4-3.19,6.06-7.09,6.06h-3.53v5.7h-3.11Zm6.74,9.22c2.36,0,3.83-1.32,3.83-3.17v-.05c0-2.08-1.5-3.17-3.83-3.17h-3.63v6.39Z" transform="translate(-273.16 -279.24)"/>
    <path fill="currentColor" d="M511.2,353.94a2.35,2.35,0,0,1-1.79-.81l.54-.53a1.83,1.83,0,0,0,1.31.6c.7,0,1-.25,1-.74s-.3-.58-1.14-.83c-1.06-.32-1.57-.58-1.57-1.48a1.48,1.48,0,0,1,1.66-1.4,2.24,2.24,0,0,1,1.64.68l-.53.54a1.52,1.52,0,0,0-1.17-.48c-.59,0-.84.29-.84.62s.23.53,1.1.79,1.61.62,1.61,1.51S512.49,353.94,511.2,353.94Z" transform="translate(-273.16 -279.24)"/>
    <path fill="currentColor" d="M517.69,353.86V351.2c0-.3,0-.74,0-.88l-.33.79-1.22,2.83L515,351.11l-.32-.79c0,.14,0,.58,0,.88v2.66h-.71v-5h.78l1.13,2.68c.12.29.28.65.34.86.07-.21.22-.57.34-.86l1.11-2.68h.8v5Z" transform="translate(-273.16 -279.24)"/>
    <path fill="currentColor" d="M341.91,312.06a3.79,3.79,0,1,1,3.79-3.78A3.82,3.82,0,0,1,341.91,312.06Zm-3.3,27.22V314.12h6.61v25.16Z" transform="translate(-273.16 -279.24)"/>
    <path fill="currentColor" d="M366.82,339.28V325.67c0-4.5-1.54-5.84-4.27-5.84s-4.31,1.34-4.31,5.7v13.75h-6.61V314.12h6.61v1.68a8.23,8.23,0,0,1,5.89-2.2c6.42,0,9.3,4.4,9.3,11.5v14.18Z" transform="translate(-273.16 -279.24)"/>
    <path fill="currentColor" d="M393.5,339.28V337.7a7.74,7.74,0,0,1-5.31,2.1c-5.37,0-9.78-4-9.78-13.41,0-7.52,3.55-12.79,9.78-12.79a8,8,0,0,1,5.31,2v-7.9l6.62-3.31v34.93Zm0-17.3a5.23,5.23,0,0,0-4.45-2.15c-2.54,0-3.93,2.2-3.93,6.42,0,5.17,1.73,7.33,4.31,7.33a4.63,4.63,0,0,0,4.07-2.11Z" transform="translate(-273.16 -279.24)"/>
    <path fill="currentColor" d="M421.58,327.39H414.2v11.89h-6.7V305.74h14.66c6.32,0,11.55,3.5,11.55,10.64C433.71,324.14,428.53,327.39,421.58,327.39Zm.34-15.14H414.2v8.63H422c3.12,0,4.8-1.44,4.8-4.36S424.89,312.25,421.92,312.25Z" transform="translate(-273.16 -279.24)"/>
    <path fill="currentColor" d="M446.74,339.8c-6.57,0-11.36-5.36-11.36-13.08s4.79-13.12,11.36-13.12,11.4,5.41,11.4,13.12S453.3,339.8,446.74,339.8Zm0-19.83c-3.16,0-4.65,2.87-4.65,6.75s1.49,6.71,4.65,6.71,4.69-3.21,4.69-6.71C451.43,322.89,449.9,320,446.74,320Z" transform="translate(-273.16 -279.24)"/>
    <path fill="currentColor" d="M466.54,312.06a3.79,3.79,0,1,1,3.79-3.78A3.82,3.82,0,0,1,466.54,312.06Zm-3.31,27.22V314.12h6.62v25.16Z" transform="translate(-273.16 -279.24)"/>
    <path fill="currentColor" d="M491.45,339.28V325.67c0-4.5-1.54-5.84-4.27-5.84s-4.31,1.34-4.31,5.7v13.75h-6.61V314.12h6.61v1.68a8.23,8.23,0,0,1,5.89-2.2c6.42,0,9.3,4.4,9.3,11.5v14.18Z" transform="translate(-273.16 -279.24)"/>
    <path fill="currentColor" d="M517.88,338.27a8.83,8.83,0,0,1-5.13,1.53c-4.07,0-6.71-3.16-6.71-7.57V320.35h-4.21v-6.23H506v-6.46l6.62-3.31v9.77h6v6.23h-6v10.11c0,2.4.86,3,2.44,3,1.2,0,2.11-.53,3.74-1.92Z" transform="translate(-273.16 -279.24)"/>
  </symbol>

  <symbol id="tonic_logo" viewBox="0 0 198.4 119.8">
    <path fill="currentColor" d="M91.2,16.5c7.4,1.6,15.9,3.3,23.3,3.3c8.7,0,15.5-3.9,15.5-8.8c0-6.6-10.2-7.1-13.4-7.1
      c-9.4,0-17.5,2.8-26.1,9.2c-5.9-1.4-12.2-3-18.2-4.6C56.9,4.2,40.9,0,28.6,0C14.7,0,0,6.5,0,18.5c0,7.7,8.1,16,21.3,16
      c11.3,0,20.6-3.8,27.6-11.4l0.8-0.8l-2.6-1.9l-0.6,0.7c-6.3,6.8-14.8,10.2-25.2,10.2c-8.7,0-18.1-4.9-18.1-12.8
      c0-7.6,8.7-15.3,25.4-15.3c12,0,28,4.3,43.4,8.4c5.1,1.4,10.3,2.7,15.3,4C69.2,30.6,46,63.1,10.2,117.1l-0.5,0.8l2.6,1.9l0.6-0.9
      C49.8,63.3,73.2,30.4,91.2,16.5z M114.5,16.6c-6.3,0-13.6-1.3-19.8-2.6c7.1-4.8,13.9-6.9,21.9-6.9c2.4,0,10.2,0.3,10.2,3.9
      C126.8,13.7,122.1,16.6,114.5,16.6z"/>
    <path fill="currentColor" d="M163.1,64.5c1.5,0,3-1.6,3-3.2c0-1.5-1.5-3-3-3c-1.6,0-3.2,1.5-3.2,3C160,63,161.5,64.5,163.1,64.5z"/>
    <path fill="currentColor" d="M195.8,92.6l-0.6,0.7c-8.5,9.9-23.5,20.5-32.5,20.5c-1.9,0-5.1-0.8-5.1-5.8c0-4.1,1.6-8.5,4.1-12.5l0.1-0.1
      l0.7-0.8l-0.1-0.1c6.8-10.3,19-18.9,25.1-18.9c1.9,0,1.9,0.6,1.9,0.9c0,4.9-7.3,12.7-15.1,16.1l-0.9,0.4l1.2,3.1l1-0.4
      c8.1-3.7,17-12.4,17-19.1c0-2-1.8-4.1-5.1-4.1c-7.6,0-20.5,9.4-27.7,20.5l-0.4,0.5c-12.7,14.9-22.2,20.2-26.4,20.2
      c-0.5,0-1.4,0-1.4-1.9c0-4.5,5.8-13.8,18.9-29.8l4.3-5.2l-2.6-1.9l-4.1,5.1c-7.3,8.5-10.3,12-11.1,13l-0.3,0.4
      c-14.1,16.5-23.7,20.9-26.8,20.9c-1,0-1.3-0.2-1.3-1.5c0-4,5.5-10.7,10.8-17.2c5.7-7,11.1-13.6,11.1-18.2c0-2.2-1.5-4.5-4.2-4.5
      c-5,0-12.8,6.4-19.6,13c4.3-6.8,4.3-8.7,4.3-9.5c0-2.5-1.4-4-3.6-4c-3.9,0-11.1,8-21.5,20.3l0,0l-0.6,0.7
      c-10,11.7-18.4,15.6-23.6,15.6c9.7-8.9,19.5-23.3,19.5-32.1c0-4.1-2.7-5.6-5.2-5.6c-6.7,0-16.8,8.9-21.6,18.5L53,88.5l-0.7,0.7
      c-6.8,6.8-11.6,15.7-11.6,21.6c0,3.9,2.3,6.5,5.8,6.5c3.1,0,7.1-1.9,11.8-5.6c7.3,2.2,18.5-3.8,28.7-15.6l0,0l0.8-0.9l0.5-0.6l0,0
      l0.2-0.3c7.1-8.3,15.9-18.7,18.7-18.7c0.2,0,0.3,0,0.4,0c0,0.1,0.1,0.3,0.1,0.8c0,3.9-12.8,20.8-19.7,29.8
      c-2.4,3.2-4.5,5.9-5.7,7.6l-0.6,0.8l2.5,1.9l0.6-0.8C102.7,92.4,119.7,76,126.3,76c0.7,0,1,0.1,1,1.3c0,3.5-5.2,9.9-10.2,16
      c-5.8,7-11.7,14.3-11.7,19.4c0,2.3,1.4,4.7,4.5,4.7c4,0,11.5-4.1,20.7-12.9c-1.4,2.9-2.1,5.2-2.1,7.1c0,2.5,1.6,5.1,4.6,5.1
      c4.2,0,12-3.9,22.2-14.2c-0.5,1.9-0.8,3.7-0.8,5.5c0,6.2,4.2,9,8.3,9c9,0,24.7-9.7,35-21.7l0.7-0.8L195.8,92.6z M75.9,74.5
      c1.2,0,2,0.4,2,2.4c0,8.2-10.4,22.9-19.9,31.1c-2.2-1.3-3.3-4.1-3.3-7.9C54.7,88.5,68.9,74.5,75.9,74.5z M51.5,100
      c0,5.6,1.9,8.6,3.8,10.1c-3.5,2.6-6.6,4-8.8,4c-1.3,0-2.6-0.4-2.6-3.3c0-4.6,3.5-11.4,8.8-17.2C51.9,95.8,51.5,98,51.5,100z"/>
  </symbol>

  <symbol id="example" viewBox="0 0 100 100">
    <path fill="currentColor" d="M59.5,10H17.2v80.3h65.2V32L59.5,10z M60.2,19l13.2,12.7H60.2V19z M23.2,84.3V16h31v21.7h22.1v46.6H23.2z"/>
  </symbol>

  <symbol id="custom" viewBox="0 0 100 100">
    <path fill="currentColor" d="M79.8,32.8L67.5,20.5c-0.2-0.2-0.5-0.2-0.7,0L25.2,62.1c-0.1,0.1-0.1,0.1-0.1,0.2L20.8,79c0,0.2,0,0.4,0.1,0.5
    	c0.1,0.1,0.2,0.1,0.4,0.1c0,0,0.1,0,0.1,0l16.6-4.4c0.1,0,0.2-0.1,0.2-0.1l41.6-41.6C79.9,33.3,79.9,33,79.8,32.8z M67.1,25.8
    	l7.3,7.3L36.9,70.7l-7.3-7.3L67.1,25.8z M33,72.4l-6.8,1.8l1.8-6.9L33,72.4z"/>
  </symbol>

  <symbol id="edit" viewBox="0 0 100 100">
    <path fill="currentColor" d="M79.8,32.8L67.5,20.5c-0.2-0.2-0.5-0.2-0.7,0L25.2,62.1c-0.1,0.1-0.1,0.1-0.1,0.2L20.8,79c0,0.2,0,0.4,0.1,0.5
    	c0.1,0.1,0.2,0.1,0.4,0.1c0,0,0.1,0,0.1,0l16.6-4.4c0.1,0,0.2-0.1,0.2-0.1l41.6-41.6C79.9,33.3,79.9,33,79.8,32.8z M67.1,25.8
    	l7.3,7.3L36.9,70.7l-7.3-7.3L67.1,25.8z M33,72.4l-6.8,1.8l1.8-6.9L33,72.4z"/>
  </symbol>

  <symbol id="code" viewBox="0 0 100 100">
  	<polygon fill="currentColor" points="30.7,21.3 1.1,51 30.7,80.7 35,76.4 9.6,51 35,25.6 	"/>
  	<polygon fill="currentColor" points="69.8,21.3 65.6,25.6 91,51 65.6,76.4 69.8,80.7 99.5,51 	"/>
  </symbol>

  <symbol id="checkbox_on" viewBox="0 0 100 100">
    <path fill="currentColor" d="M79.7,1H21.3C10.4,1,1.5,9.9,1.5,20.8v58.4C1.5,90.1,10.4,99,21.3,99h58.4c10.9,0,19.8-8.9,19.8-19.8V20.8C99.5,9.9,90.6,1,79.7,1z M93.3,79.3c0,7.5-6.1,13.6-13.6,13.6H21.3c-7.5,0-13.6-6.1-13.6-13.6V20.9c0-7.5,6.1-13.6,13.6-13.6V7.2h58.4c7.5,0,13.6,6.1,13.6,13.6V79.3z"/>
    <polygon fill="currentColor" points="44,61.7 23.4,41.1 17.5,47 44,73.5 85.1,32.4 79.2,26.5 "/>
  </symbol>

  <symbol id="checkbox_off" viewBox="0 0 100 100">
    <path fill="currentColor" d="M79.7,99H21.3C10.4,99,1.5,90.1,1.5,79.2V20.8C1.5,9.9,10.4,1,21.3,1h58.4c10.9,0,19.8,8.9,19.8,19.8v58.4C99.5,90.1,90.6,99,79.7,99z M21.3,7.3c-7.5,0-13.6,6.1-13.6,13.6v58.4c0,7.5,6.1,13.6,13.6,13.6h58.4c7.5,0,13.6-6.1,13.6-13.6V20.8c0-7.5-6.1-13.6-13.6-13.6H21.3V7.3z"/>
  </symbol>

  <symbol id="custom_on" viewBox="0 0 100 100">
    <path fill="currentColor" d="M75.7,90.7L49.5,71.1L23.4,90.7V9.9h52.3V90.7z"/>
  </symbol>

  <symbol id="custom_off" viewBox="0 0 100 100">
    <path fill="currentColor" d="M75.7,90.7L49.5,71.1L23.4,90.7V9.9h52.3V90.7z M29.6,16.1v62.1l19.9-14.9l19.9,14.9V16.1H29.6z"/>
  </symbol>

  <symbol id="close" viewBox="0 0 100 100">
    <path fill="currentColor" d="M80.7,22.6l-3.5-3.5c-0.1-0.1-0.3-0.1-0.4,0L50,45.9L23.2,19.1c-0.1-0.1-0.3-0.1-0.4,0l-3.5,3.5c-0.1,0.1-0.1,0.3,0,0.4
    	l26.8,26.8L19.3,76.6c-0.1,0.1-0.1,0.3,0,0.4l3.5,3.5c0,0,0.1,0.1,0.2,0.1s0.1,0,0.2-0.1L50,53.6l25.9,25.9c0.1,0.1,0.3,0.1,0.4,0
    	l3.5-3.5c0.1-0.1,0.1-0.3,0-0.4L53.9,49.8l26.8-26.8C80.8,22.8,80.8,22.7,80.7,22.6z"/>
  </symbol>

  <symbol id="theme" viewBox="0 0 50 50">
    <path fill="currentColor" d="M25,0C11.2,0,0,11.2,0,25s11.2,25,25,25s25-11.2,25-25S38.8,0,25,0z M5.4,25C5.4,14.2,14.2,5.4,25,5.4v39.3
    	C14.2,44.6,5.4,35.8,5.4,25z"/>
  </symbol>

  <symbol id="tonic_icon" viewBox="0 0 100 100">
  	<path fill="#EB664E" d="M25.6,65.9c0,0,5.9-3.3,14-2.4s11.8,3.3,21.8,2.4s13-2.5,13-2.5l-0.2,28.1c0,0,0.5,7.1-7.1,7.1
  		c-7.6,0-34.6,0-34.6,0s-7.6-1.4-7.1-7.1C25.8,85.8,25.6,65.9,25.6,65.9z"/>
  	<path fill="currentColor" d="M75.7,40.5C74.8,32,69.5,26.4,60.2,24v-8.8h3.1v-2.8h-3.1h-3L58.5,0H41.5l1.3,12.3h-3h-3.1v2.8h3.1V24
  		c-9.4,2.4-14.6,7.7-15.5,16l-0.1,0.5v50.9c0,4.7,3.8,8.5,8.5,8.5h34.6c4.7,0,8.5-3.8,8.5-8.5V41.1L75.7,40.5z M44.7,2.8h10.6
  		l-1,9.5h-8.6L44.7,2.8z M73,91.5c0,3.1-2.6,5.7-5.7,5.7H32.7c-3.1,0-5.7-2.6-5.7-5.7V40.9l0.1-0.3l0-0.2c0.7-7.4,5.5-12,14.4-13.9
  		l1.1-0.2V15.2h0.5h13.7h0.5v11.1l1.1,0.2c6.1,1.3,13.5,4.9,14.4,14.4l0.1,0.5V91.5z"/>
  	<path fill="currentColor" d="M61.8,51c-2,0-3.7,0.6-5.5,1.8c-1.1-0.3-2.2-0.6-3.4-0.9c-3.2-0.9-6.5-1.8-9.1-1.8c-3.2,0-6.5,1.6-6.5,4.4
  		c0,2.4,2.6,3.9,5,3.9c2.5,0,4.6-0.9,6.1-2.5l0.7-0.7l-1.6-1.2l-0.5,0.6c-1.2,1.2-2.7,1.9-4.7,1.9c-1.5,0-3-0.8-3-2
  		c0-1.2,1.6-2.5,4.5-2.5c2.3,0,5.5,0.8,8.6,1.7l0.1,0c0.6,0.2,1.3,0.3,1.9,0.5c-3.6,3.4-8.2,9.9-15,20.1L39,75.1l1.6,1.2l0.5-0.8
  		c7.4-11.1,12.1-17.7,15.6-20.6c1.5,0.3,3.1,0.6,4.6,0.6c2.2,0,3.8-1.1,3.8-2.5C65.2,51.8,63.9,51,61.8,51z M61.3,53.6
  		c-0.7,0-1.4-0.1-2.1-0.2c0.8-0.3,1.6-0.4,2.5-0.4c0.7,0,1.1,0.1,1.3,0.2C62.9,53.3,62.3,53.6,61.3,53.6z"/>
  	<circle fill="currentColor" cx="58.8" cy="73.2" r="1.2"/>
  </symbol>

</svg>
