<?xml version="1.0" encoding="utf-8"?>
<!DOCTYPE svg PUBLIC "-//W3C//DTD SVG 1.1//EN" "http://www.w3.org/Graphics/SVG/1.1/DTD/svg11.dtd">
<svg version="1.1" xmlns="http://www.w3.org/2000/svg" viewBox="0 0 100 100">

  <symbol id="example" viewBox="0 0 100 100">
    <path fill="currentColor" d="M59.5,10H17.2v80.3h65.2V32L59.5,10z M60.2,19l13.2,12.7H60.2V19z M23.2,84.3V16h31v21.7h22.1v46.6H23.2z"/>
  </symbol>

  <symbol id="custom" viewBox="0 0 100 100">
    <path fill="currentColor" d="M79.8,32.8L67.5,20.5c-0.2-0.2-0.5-0.2-0.7,0L25.2,62.1c-0.1,0.1-0.1,0.1-0.1,0.2L20.8,79c0,0.2,0,0.4,0.1,0.5
    	c0.1,0.1,0.2,0.1,0.4,0.1c0,0,0.1,0,0.1,0l16.6-4.4c0.1,0,0.2-0.1,0.2-0.1l41.6-41.6C79.9,33.3,79.9,33,79.8,32.8z M67.1,25.8
    	l7.3,7.3L36.9,70.7l-7.3-7.3L67.1,25.8z M33,72.4l-6.8,1.8l1.8-6.9L33,72.4z"/>
  </symbol>

  <symbol id="edit" viewBox="0 0 100 100">
    <path fill="currentColor" d="M79.8,32.8L67.5,20.5c-0.2-0.2-0.5-0.2-0.7,0L25.2,62.1c-0.1,0.1-0.1,0.1-0.1,0.2L20.8,79c0,0.2,0,0.4,0.1,0.5
    	c0.1,0.1,0.2,0.1,0.4,0.1c0,0,0.1,0,0.1,0l16.6-4.4c0.1,0,0.2-0.1,0.2-0.1l41.6-41.6C79.9,33.3,79.9,33,79.8,32.8z M67.1,25.8
    	l7.3,7.3L36.9,70.7l-7.3-7.3L67.1,25.8z M33,72.4l-6.8,1.8l1.8-6.9L33,72.4z"/>
  </symbol>

  <symbol id="code" viewBox="0 0 100 100">
  	<polygon fill="currentColor" points="30.7,21.3 1.1,51 30.7,80.7 35,76.4 9.6,51 35,25.6 	"/>
  	<polygon fill="currentColor" points="69.8,21.3 65.6,25.6 91,51 65.6,76.4 69.8,80.7 99.5,51 	"/>
  </symbol>

  <symbol id="checkbox_on" viewBox="0 0 100 100">
    <path fill="currentColor" d="M79.7,1H21.3C10.4,1,1.5,9.9,1.5,20.8v58.4C1.5,90.1,10.4,99,21.3,99h58.4c10.9,0,19.8-8.9,19.8-19.8V20.8C99.5,9.9,90.6,1,79.7,1z M93.3,79.3c0,7.5-6.1,13.6-13.6,13.6H21.3c-7.5,0-13.6-6.1-13.6-13.6V20.9c0-7.5,6.1-13.6,13.6-13.6V7.2h58.4c7.5,0,13.6,6.1,13.6,13.6V79.3z"/>
    <polygon fill="currentColor" points="44,61.7 23.4,41.1 17.5,47 44,73.5 85.1,32.4 79.2,26.5 "/>
  </symbol>

  <symbol id="checkbox_off" viewBox="0 0 100 100">
    <path fill="currentColor" d="M79.7,99H21.3C10.4,99,1.5,90.1,1.5,79.2V20.8C1.5,9.9,10.4,1,21.3,1h58.4c10.9,0,19.8,8.9,19.8,19.8v58.4C99.5,90.1,90.6,99,79.7,99z M21.3,7.3c-7.5,0-13.6,6.1-13.6,13.6v58.4c0,7.5,6.1,13.6,13.6,13.6h58.4c7.5,0,13.6-6.1,13.6-13.6V20.8c0-7.5-6.1-13.6-13.6-13.6H21.3V7.3z"/>
  </symbol>

  <symbol id="custom_on" viewBox="0 0 100 100">
    <path fill="#000000" d="M75.7,90.7L49.5,71.1L23.4,90.7V9.9h52.3V90.7z"/>
  </symbol>

  <symbol id="custom_off" viewBox="0 0 100 100">
    <path fill="#000000" d="M75.7,90.7L49.5,71.1L23.4,90.7V9.9h52.3V90.7z M29.6,16.1v62.1l19.9-14.9l19.9,14.9V16.1H29.6z"/>
  </symbol>

  <symbol id="close" viewBox="0 0 100 100">
    <path fill="currentColor" d="M80.7,22.6l-3.5-3.5c-0.1-0.1-0.3-0.1-0.4,0L50,45.9L23.2,19.1c-0.1-0.1-0.3-0.1-0.4,0l-3.5,3.5c-0.1,0.1-0.1,0.3,0,0.4
    	l26.8,26.8L19.3,76.6c-0.1,0.1-0.1,0.3,0,0.4l3.5,3.5c0,0,0.1,0.1,0.2,0.1s0.1,0,0.2-0.1L50,53.6l25.9,25.9c0.1,0.1,0.3,0.1,0.4,0
    	l3.5-3.5c0.1-0.1,0.1-0.3,0-0.4L53.9,49.8l26.8-26.8C80.8,22.8,80.8,22.7,80.7,22.6z"/>
  </symbol>

  <symbol id="theme" viewBox="0 0 100 100">
    <path fill="currentColor" d="M51.2,2.6C25.3,2.6,4.2,23.7,4.2,49.6c0,25.9,21.1,46.9,46.9,46.9s46.9-21.1,46.9-46.9
    	C98.1,23.7,77.1,2.6,51.2,2.6z M10.2,49.6C10.2,27,28.6,8.6,51.2,8.6v81.9C28.6,90.5,10.2,72.2,10.2,49.6z"/>
  </symbol>

</svg>
